<?xml version="1.0" encoding="UTF-8"?>
<!DOCTYPE svg PUBLIC "-//W3C//DTD SVG 1.1//EN" "http://www.w3.org/Graphics/SVG/1.1/DTD/svg11.dtd">
<svg xmlns="http://www.w3.org/2000/svg" version="1.1" width="600px" height="250px" style="shape-rendering:geometricPrecision; text-rendering:geometricPrecision; image-rendering:optimizeQuality; fill-rule:evenodd; clip-rule:evenodd" xmlns:xlink="http://www.w3.org/1999/xlink">
<g><path style="opacity:0.931" fill="#000000" d="M 499.5,42.5 C 507.328,42.942 514.661,45.1087 521.5,49C 522.894,49.956 523.561,51.2894 523.5,53C 516.479,79.0611 507.646,104.561 497,129.5C 490.834,145.68 481.334,159.513 468.5,171C 457.104,175.555 445.771,175.222 434.5,170C 424.447,167.275 417.614,161.109 414,151.5C 412.077,141.844 412.077,132.177 414,122.5C 417.065,108.976 420.731,95.643 425,82.5C 430.601,72.9623 435.935,63.2956 441,53.5C 445.433,45.68 451.266,44.5133 458.5,50C 463.077,53.0516 465.743,57.2183 466.5,62.5C 466.406,64.9228 465.906,67.2562 465,69.5C 461.623,74.5262 459.79,79.8596 459.5,85.5C 449.806,103.588 443.806,122.921 441.5,143.5C 441.329,152.169 444.162,153.502 450,147.5C 465.341,120.81 478.008,92.81 488,63.5C 491.323,56.184 495.157,49.184 499.5,42.5 Z"/></g>
<g><path style="opacity:0.92" fill="#000000" d="M 90.5,43.5 C 103.079,44.3678 112.246,50.3678 118,61.5C 118.667,63.1667 118.667,64.8333 118,66.5C 114.418,74.0029 110.085,81.0029 105,87.5C 103.526,90.7556 102.36,94.089 101.5,97.5C 92.6129,97.3068 85.1129,93.9735 79,87.5C 78.3333,85.1667 78.3333,82.8333 79,80.5C 82.3776,75.5782 85.8776,70.7449 89.5,66C 70.6847,76.1443 55.6847,90.4777 44.5,109C 44.9574,109.414 45.2907,109.914 45.5,110.5C 44.294,112.149 42.9606,113.649 41.5,115C 42.1667,115.333 42.8333,115.667 43.5,116C 40.38,123.53 38.38,131.364 37.5,139.5C 36.9645,152.473 42.9645,157.64 55.5,155C 63.2525,152.232 70.2525,148.232 76.5,143C 82.0503,136.947 88.0503,131.447 94.5,126.5C 97.5969,109.466 105.93,95.6331 119.5,85C 128.737,80.7783 137.071,82.1116 144.5,89C 151.859,89.4357 158.359,91.9357 164,96.5C 168.534,108.217 168.201,119.883 163,131.5C 158.434,141.469 152.268,150.303 144.5,158C 125.685,163.23 110.019,158.063 97.5,142.5C 92.8013,151.032 87.1346,158.866 80.5,166C 61.9235,179.805 43.2569,179.805 24.5,166C 7.50308,151.728 2.33641,133.895 9,112.5C 15.477,93.3568 26.6437,77.5234 42.5,65C 56.5313,53.2741 72.5313,46.1074 90.5,43.5 Z M 140.5,99.5 C 142.5,99.5 144.5,99.5 146.5,99.5C 147.103,107.238 145.27,114.571 141,121.5C 135.902,128.435 129.736,134.102 122.5,138.5C 122.287,122.595 128.287,109.595 140.5,99.5 Z M 43.5,101.5 C 43.4827,103.028 42.816,103.528 41.5,103C 42.0442,102.283 42.7109,101.783 43.5,101.5 Z M 33.5,126.5 C 33.9684,119.262 36.135,112.595 40,106.5C 38.1345,113.263 35.9678,119.93 33.5,126.5 Z"/></g>
<g><path style="opacity:0.914" fill="#000000" d="M 205.5,47.5 C 213.448,47.889 220.281,50.889 226,56.5C 226.875,57.8732 227.375,59.3732 227.5,61C 216.963,81.9097 206.796,103.076 197,124.5C 196.009,126.447 195.675,128.447 196,130.5C 201.289,126.88 206.289,122.88 211,118.5C 215.708,103.135 224.875,91.3018 238.5,83C 246.65,81.163 253.65,83.163 259.5,89C 266.859,89.4357 273.359,91.9357 279,96.5C 282.837,104.881 283.504,113.547 281,122.5C 276.762,136.148 269.596,147.982 259.5,158C 241.774,163.1 226.607,158.6 214,144.5C 212.66,141.798 211.327,139.131 210,136.5C 204.423,146.412 196.59,153.912 186.5,159C 182.186,159.455 178.186,158.455 174.5,156C 171.296,153.131 168.463,149.965 166,146.5C 164.558,141.42 164.058,136.42 164.5,131.5C 172.874,108.215 182.707,85.548 194,63.5C 197.277,57.7299 201.11,52.3966 205.5,47.5 Z M 255.5,99.5 C 257.5,99.5 259.5,99.5 261.5,99.5C 262.103,107.238 260.27,114.571 256,121.5C 250.902,128.435 244.736,134.102 237.5,138.5C 237.287,122.595 243.287,109.595 255.5,99.5 Z"/></g>
<g><path style="opacity:0.904" fill="#000000" d="M 300.5,83.5 C 308.413,82.97 315.746,84.8033 322.5,89C 323.899,90.0616 324.899,91.395 325.5,93C 324.173,95.453 323.339,97.953 323,100.5C 328.62,93.8734 335.12,88.3734 342.5,84C 349.404,83.8653 355.237,86.3653 360,91.5C 361.84,93.848 363.007,96.5147 363.5,99.5C 359.318,107.216 355.818,115.216 353,123.5C 351.844,127.418 351.344,131.418 351.5,135.5C 349.208,135.244 347.041,135.577 345,136.5C 335.981,135.816 331.481,130.983 331.5,122C 331.647,117.709 332.147,113.543 333,109.5C 325.894,114.203 320.227,120.203 316,127.5C 310.634,137.613 306.467,148.113 303.5,159C 294.311,158.602 286.145,155.435 279,149.5C 278.088,142.351 278.755,135.351 281,128.5C 284.67,118.156 288.337,107.822 292,97.5C 294.593,92.639 297.427,87.9724 300.5,83.5 Z"/></g>
<g><path style="opacity:0.919" fill="#000000" d="M 526.5,83.5 C 534.295,82.4875 541.128,84.4875 547,89.5C 547.155,91.856 547.155,94.1893 547,96.5C 560.715,79.6427 574.715,79.3094 589,95.5C 590.858,98.7627 592.025,102.263 592.5,106C 589.722,125.22 580.722,140.886 565.5,153C 553.287,162.158 541.787,161.325 531,150.5C 524.812,160.568 521.146,171.568 520,183.5C 519.191,189.749 519.358,195.916 520.5,202C 519.801,204.909 517.967,206.409 515,206.5C 495.887,204.648 488.887,194.314 494,175.5C 498.776,143.872 508.109,114.539 522,87.5C 523.397,85.9297 524.897,84.5964 526.5,83.5 Z M 563.5,100.5 C 561.607,116.442 553.94,127.942 540.5,135C 542.266,119.705 549.933,108.205 563.5,100.5 Z M 498.5,166.5 C 499.86,171.739 499.693,177.072 498,182.5C 498.096,177.191 498.262,171.858 498.5,166.5 Z"/></g>
</svg>
